<?xml version="1.0" encoding="UTF-8" standalone="no"?>
<svg width="512" height="512" viewBox="0 0 512 512" fill="none" xmlns="http://www.w3.org/2000/svg">
  <circle cx="256" cy="256" r="256" fill="url(#paint0_linear)" />
  <path d="M160 152H352V176H184V224H336V248H184V296H352V320H160V152Z" fill="white"/>
  <path d="M256 340C278.091 340 296 357.909 296 380C296 402.091 278.091 420 256 420C233.909 420 216 402.091 216 380C216 357.909 233.909 340 256 340Z" fill="#FF6D00"/>
  <path d="M336 132L336 132.5L336 133V328.5L336 329V329.5C336 330.328 335.328 331 334.5 331H326.5C325.672 331 325 330.328 325 329.5V329V328.5V133V132.5V132C325 131.172 325.672 130.5 326.5 130.5H334.5C335.328 130.5 336 131.172 336 132Z" fill="#FF6D00"/>
  <path d="M176 132L176 132.5L176 133V328.5L176 329V329.5C176 330.328 175.328 331 174.5 331H166.5C165.672 331 165 330.328 165 329.5V329V328.5V133V132.5V132C165 131.172 165.672 130.5 166.5 130.5H174.5C175.328 130.5 176 131.172 176 132Z" fill="#FF6D00"/>
  <defs>
    <linearGradient id="paint0_linear" x1="0" y1="0" x2="512" y2="512" gradientUnits="userSpaceOnUse">
      <stop stop-color="#240046" />
      <stop offset="1" stop-color="#5A189A" />
    </linearGradient>
  </defs>
</svg>
